<?xml version="1.0" standalone="no"?>
<!DOCTYPE svg PUBLIC "-//W3C//DTD SVG 20010904//EN"
 "http://www.w3.org/TR/2001/REC-SVG-20010904/DTD/svg10.dtd">
<svg version="1.0" xmlns="http://www.w3.org/2000/svg"
 width="1200.000000pt" height="1200.000000pt" viewBox="0 0 1200.000000 1200.000000"
 preserveAspectRatio="xMidYMid meet">

<g transform="translate(0.000000,1200.000000) scale(0.100000,-0.100000)"
fill="#000000" stroke="none">
<path d="M4690 11163 c-550 -778 -852 -1639 -955 -2723 -27 -281 -40 -714 -27
-879 25 -320 125 -573 311 -789 35 -40 61 -75 60 -76 -13 -11 -249 -29 -434
-33 -441 -10 -552 34 -661 262 -158 333 -185 975 -84 2005 46 460 179 1529
235 1880 5 30 -2 22 -54 -57 -398 -612 -665 -1391 -776 -2258 -77 -606 -85
-1420 -19 -1820 41 -254 104 -393 197 -442 142 -73 821 -67 1902 17 143 11
307 25 365 30 58 6 122 10 143 10 l38 0 -16 -30 c-18 -34 19 -22 -450 -145
-1449 -379 -2416 -683 -2624 -825 -101 -69 -132 -155 -139 -385 -13 -460 148
-1068 493 -1865 210 -484 542 -1118 817 -1559 154 -246 468 -701 468 -677 0 4
-51 163 -114 354 -419 1275 -728 2337 -840 2892 -75 373 -78 597 -10 731 67
134 319 261 808 409 72 22 131 38 133 36 2 -2 -14 -46 -36 -97 -76 -178 -86
-236 -85 -474 2 -832 362 -1878 1059 -3080 115 -199 248 -415 253 -411 3 4
-149 642 -314 1314 -213 869 -314 1528 -315 2042 0 311 25 481 91 616 39 79
123 158 272 257 101 67 318 191 323 185 1 -2 -6 -64 -15 -138 -58 -451 -56
-1021 5 -1433 82 -556 284 -1133 558 -1593 270 -454 562 -666 846 -614 127 23
237 86 365 209 151 146 281 334 421 611 246 488 389 966 462 1540 15 119 18
218 18 550 0 402 -4 475 -41 733 -8 59 -14 112 -12 117 3 11 237 -118 342
-190 217 -146 279 -241 323 -495 23 -137 23 -554 0 -785 -34 -328 -110 -795
-191 -1165 -37 -169 -184 -780 -335 -1399 -50 -203 -90 -370 -88 -372 4 -4
278 456 378 636 624 1120 956 2155 936 2920 -5 204 -14 252 -81 418 -21 52
-36 96 -34 98 3 2 76 -18 164 -46 443 -137 693 -259 764 -374 77 -125 77 -358
-1 -741 -116 -572 -461 -1767 -874 -3023 -41 -126 -75 -233 -75 -237 0 -30
378 529 537 795 407 678 790 1483 1005 2110 197 577 280 1124 211 1389 -34
132 -88 186 -266 263 -401 175 -1516 507 -2780 829 -117 30 -130 36 -144 62
-8 16 -12 31 -10 33 2 3 112 -4 243 -15 737 -62 1266 -91 1659 -91 373 0 510
19 580 81 145 127 215 586 202 1309 -16 816 -118 1473 -327 2100 -88 263 -161
438 -280 675 -84 166 -278 500 -287 492 -1 -2 11 -100 27 -218 195 -1392 285
-2400 261 -2914 -25 -507 -100 -796 -245 -933 -98 -93 -230 -118 -570 -109
-192 5 -379 20 -415 33 -10 3 -1 18 31 52 150 154 267 393 315 644 15 78 18
146 17 423 0 337 -9 496 -45 805 -109 943 -409 1785 -877 2458 -47 67 -87 121
-89 119 -2 -3 19 -132 46 -288 135 -776 225 -1462 273 -2079 17 -221 17 -1016
0 -1210 -28 -309 -64 -488 -121 -603 -66 -131 -145 -161 -421 -161 -96 0 -224
6 -285 13 -176 19 -409 53 -418 60 -4 4 21 26 56 49 231 153 389 423 443 757
22 134 25 423 5 535 -44 258 -143 489 -288 670 -104 130 -226 213 -383 261
-96 30 -280 32 -380 5 -226 -61 -402 -225 -543 -506 -102 -202 -147 -411 -147
-677 0 -316 59 -555 186 -761 58 -93 196 -235 282 -290 74 -48 80 -44 -113
-71 -246 -35 -356 -44 -535 -45 -259 -1 -348 29 -410 137 -59 102 -96 268
-127 569 -25 250 -25 1029 0 1348 47 592 124 1182 252 1940 31 179 58 333 61
343 9 27 0 20 -36 -30z"/>
</g>
</svg>
